<?xml version="1.0" encoding="utf-8"?>
<!-- Svg Vector Icons : http://www.onlinewebfonts.com/icon -->
<!DOCTYPE svg PUBLIC "-//W3C//DTD SVG 1.1//EN" "http://www.w3.org/Graphics/SVG/1.1/DTD/svg11.dtd">
<svg version="1.1" xmlns="http://www.w3.org/2000/svg" xmlns:xlink="http://www.w3.org/1999/xlink" x="0px" y="0px" viewBox="0 0 1000 1000" enable-background="new 0 0 1000 1000" xml:space="preserve">
<metadata> Svg Vector Icons : http://www.onlinewebfonts.com/icon </metadata>
<g><path d="M500,990c-66.1,0-130.3-13-190.7-38.5c-58.4-24.7-110.8-60-155.7-105c-45-45-80.3-97.4-105-155.7C23,630.3,10,566.1,10,500s13-130.3,38.5-190.7c24.7-58.4,60-110.8,105-155.7c45-45,97.4-80.3,155.7-105C369.7,23,433.9,10,500,10c66.1,0,130.3,13,190.7,38.5c58.4,24.7,110.8,60,155.7,105c45,45,80.3,97.4,105,155.7C977,369.7,990,433.9,990,500c0,66.1-13,130.3-38.5,190.7c-24.7,58.4-60,110.8-105,155.7c-45,45-97.4,80.3-155.7,105C630.3,977,566.1,990,500,990z M500,52.6C253.3,52.6,52.6,253.3,52.6,500c0,246.7,200.7,447.4,447.4,447.4c246.7,0,447.4-200.7,447.4-447.4S746.7,52.6,500,52.6z"/><path d="M580.2,356.9H354.9c-11.9,0-21.6-9.7-21.6-21.7c0-12,9.7-21.7,21.6-21.7h225.3c11.9,0,21.6,9.7,21.6,21.7C601.8,347.2,592.1,356.9,580.2,356.9z M580.2,529.1H354.9c-11.9,0-21.6-9.7-21.6-21.7c0-12,9.7-21.7,21.6-21.7h225.3c11.9,0,21.6,9.7,21.6,21.7C601.8,519.4,592.1,529.1,580.2,529.1z M477.8,621.8H355c-11.9,0-21.6-9.7-21.6-21.7c0-12,9.6-21.7,21.6-21.7h122.8c11.9,0,21.6,9.7,21.6,21.7S489.7,621.8,477.8,621.8z M551.1,449.7H354.9c-11.9,0-21.6-9.7-21.6-21.7c0-12,9.7-21.7,21.6-21.7h196.2c11.9,0,21.6,9.7,21.6,21.7C572.7,439.9,563,449.7,551.1,449.7z"/><path d="M663.1,618.3v109.2H307.7V276h355.4v200.4l37.7-32.7V241H270v521.5h430.8V589L663.1,618.3L663.1,618.3z M738.6,427.4l-24,21.7l51.4,46.6l24-21.8L738.6,427.4L738.6,427.4z M592.3,559.8l51.4,46.5l116.7-105.7L709,454.2L592.3,559.8z M634.8,614.5L583.4,568l-5.6,5.1l-14.5,59.6l65.9-13.1L634.8,614.5z"/></g>
</svg>